solid Sketchedframestarmesh
	facet normal 0.000000e+00 0.000000e+00 1.000000e+00
		outer loop
			vertex 3.579712e+01 5.663119e+01 2.000000e+01
			vertex 0.000000e+00 5.590170e+01 2.000000e+01
			vertex 4.755283e+00 5.435661e+01 2.000000e+01
		endloop
	endfacet
	facet normal 0.000000e+00 0.000000e+00 1.000000e+00
		outer loop
			vertex 3.328698e+01 3.581559e+01 2.000000e+01
			vertex 4.755283e+00 5.435661e+01 2.000000e+01
			vertex 0.000000e+00 5.590170e+01 2.000000e+01
		endloop
	endfacet
	facet normal 0.000000e+00 0.000000e+00 1.000000e+00
		outer loop
			vertex 3.579712e+01 5.663119e+01 2.000000e+01
			vertex 4.755283e+00 5.435661e+01 2.000000e+01
			vertex 3.873605e+01 5.258610e+01 2.000000e+01
		endloop
	endfacet
	facet normal 0.000000e+00 0.000000e+00 1.000000e+00
		outer loop
			vertex 3.328698e+01 3.581559e+01 2.000000e+01
			vertex 0.000000e+00 5.590170e+01 2.000000e+01
			vertex 2.853170e+01 3.427051e+01 2.000000e+01
		endloop
	endfacet
	facet normal 0.000000e+00 0.000000e+00 1.000000e+00
		outer loop
			vertex 4.755283e+01 9.045085e+01 2.000000e+01
			vertex 3.579712e+01 5.663119e+01 2.000000e+01
			vertex 3.873605e+01 5.258610e+01 2.000000e+01
		endloop
	endfacet
	facet normal 0.000000e+00 0.000000e+00 1.000000e+00
		outer loop
			vertex 2.110249e+01 4.045085e+00 2.000000e+01
			vertex 3.328698e+01 3.581559e+01 2.000000e+01
			vertex 2.853170e+01 3.427051e+01 2.000000e+01
		endloop
	endfacet
	facet normal 0.000000e+00 0.000000e+00 1.000000e+00
		outer loop
			vertex 4.755283e+01 9.045085e+01 2.000000e+01
			vertex 3.873605e+01 5.258610e+01 2.000000e+01
			vertex 4.755283e+01 8.545085e+01 2.000000e+01
		endloop
	endfacet
	facet normal 0.000000e+00 -0.000000e+00 1.000000e+00
		outer loop
			vertex 2.110249e+01 4.045085e+00 2.000000e+01
			vertex 2.853170e+01 3.427051e+01 2.000000e+01
			vertex 1.816356e+01 0.000000e+00 2.000000e+01
		endloop
	endfacet
	facet normal 0.000000e+00 0.000000e+00 1.000000e+00
		outer loop
			vertex 5.930853e+01 5.663119e+01 2.000000e+01
			vertex 4.755283e+01 9.045085e+01 2.000000e+01
			vertex 4.755283e+01 8.545085e+01 2.000000e+01
		endloop
	endfacet
	facet normal 0.000000e+00 0.000000e+00 1.000000e+00
		outer loop
			vertex 4.755283e+01 2.545085e+01 2.000000e+01
			vertex 2.110249e+01 4.045085e+00 2.000000e+01
			vertex 1.816356e+01 0.000000e+00 2.000000e+01
		endloop
	endfacet
	facet normal 0.000000e+00 0.000000e+00 1.000000e+00
		outer loop
			vertex 5.930853e+01 5.663119e+01 2.000000e+01
			vertex 4.755283e+01 8.545085e+01 2.000000e+01
			vertex 5.636960e+01 5.258610e+01 2.000000e+01
		endloop
	endfacet
	facet normal 0.000000e+00 0.000000e+00 1.000000e+00
		outer loop
			vertex 4.755283e+01 2.545085e+01 2.000000e+01
			vertex 1.816356e+01 0.000000e+00 2.000000e+01
			vertex 4.755283e+01 2.045085e+01 2.000000e+01
		endloop
	endfacet
	facet normal 0.000000e+00 0.000000e+00 1.000000e+00
		outer loop
			vertex 9.510565e+01 5.590170e+01 2.000000e+01
			vertex 5.930853e+01 5.663119e+01 2.000000e+01
			vertex 5.636960e+01 5.258610e+01 2.000000e+01
		endloop
	endfacet
	facet normal 0.000000e+00 0.000000e+00 1.000000e+00
		outer loop
			vertex 7.400316e+01 4.045085e+00 2.000000e+01
			vertex 4.755283e+01 2.545085e+01 2.000000e+01
			vertex 4.755283e+01 2.045085e+01 2.000000e+01
		endloop
	endfacet
	facet normal 0.000000e+00 0.000000e+00 1.000000e+00
		outer loop
			vertex 9.510565e+01 5.590170e+01 2.000000e+01
			vertex 5.636960e+01 5.258610e+01 2.000000e+01
			vertex 9.035037e+01 5.435661e+01 2.000000e+01
		endloop
	endfacet
	facet normal 0.000000e+00 0.000000e+00 1.000000e+00
		outer loop
			vertex 7.400316e+01 4.045085e+00 2.000000e+01
			vertex 4.755283e+01 2.045085e+01 2.000000e+01
			vertex 7.694209e+01 7.105427e-15 2.000000e+01
		endloop
	endfacet
	facet normal 0.000000e+00 0.000000e+00 1.000000e+00
		outer loop
			vertex 6.657396e+01 3.427051e+01 2.000000e+01
			vertex 9.510565e+01 5.590170e+01 2.000000e+01
			vertex 9.035037e+01 5.435661e+01 2.000000e+01
		endloop
	endfacet
	facet normal 0.000000e+00 0.000000e+00 1.000000e+00
		outer loop
			vertex 6.181867e+01 3.581559e+01 2.000000e+01
			vertex 7.400316e+01 4.045085e+00 2.000000e+01
			vertex 7.694209e+01 7.105427e-15 2.000000e+01
		endloop
	endfacet
	facet normal 0.000000e+00 -0.000000e+00 1.000000e+00
		outer loop
			vertex 6.657396e+01 3.427051e+01 2.000000e+01
			vertex 9.035037e+01 5.435661e+01 2.000000e+01
			vertex 6.181867e+01 3.581559e+01 2.000000e+01
		endloop
	endfacet
	facet normal 0.000000e+00 0.000000e+00 1.000000e+00
		outer loop
			vertex 6.181867e+01 3.581559e+01 2.000000e+01
			vertex 7.694209e+01 7.105427e-15 2.000000e+01
			vertex 6.657396e+01 3.427051e+01 2.000000e+01
		endloop
	endfacet
	facet normal 0.000000e+00 0.000000e+00 -1.000000e+00
		outer loop
			vertex 4.755283e+00 5.435661e+01 0.000000e+00
			vertex 0.000000e+00 5.590170e+01 0.000000e+00
			vertex 3.579712e+01 5.663119e+01 0.000000e+00
		endloop
	endfacet
	facet normal 0.000000e+00 0.000000e+00 -1.000000e+00
		outer loop
			vertex 0.000000e+00 5.590170e+01 0.000000e+00
			vertex 4.755283e+00 5.435661e+01 0.000000e+00
			vertex 3.328698e+01 3.581559e+01 0.000000e+00
		endloop
	endfacet
	facet normal 0.000000e+00 0.000000e+00 -1.000000e+00
		outer loop
			vertex 3.873605e+01 5.258610e+01 0.000000e+00
			vertex 4.755283e+00 5.435661e+01 0.000000e+00
			vertex 3.579712e+01 5.663119e+01 0.000000e+00
		endloop
	endfacet
	facet normal 0.000000e+00 0.000000e+00 -1.000000e+00
		outer loop
			vertex 2.853170e+01 3.427051e+01 0.000000e+00
			vertex 0.000000e+00 5.590170e+01 0.000000e+00
			vertex 3.328698e+01 3.581559e+01 0.000000e+00
		endloop
	endfacet
	facet normal 0.000000e+00 0.000000e+00 -1.000000e+00
		outer loop
			vertex 3.873605e+01 5.258610e+01 0.000000e+00
			vertex 3.579712e+01 5.663119e+01 0.000000e+00
			vertex 4.755283e+01 9.045085e+01 0.000000e+00
		endloop
	endfacet
	facet normal 0.000000e+00 -0.000000e+00 -1.000000e+00
		outer loop
			vertex 2.853170e+01 3.427051e+01 0.000000e+00
			vertex 3.328698e+01 3.581559e+01 0.000000e+00
			vertex 2.110249e+01 4.045085e+00 0.000000e+00
		endloop
	endfacet
	facet normal -0.000000e+00 0.000000e+00 -1.000000e+00
		outer loop
			vertex 4.755283e+01 8.545085e+01 0.000000e+00
			vertex 3.873605e+01 5.258610e+01 0.000000e+00
			vertex 4.755283e+01 9.045085e+01 0.000000e+00
		endloop
	endfacet
	facet normal 0.000000e+00 0.000000e+00 -1.000000e+00
		outer loop
			vertex 1.816356e+01 0.000000e+00 0.000000e+00
			vertex 2.853170e+01 3.427051e+01 0.000000e+00
			vertex 2.110249e+01 4.045085e+00 0.000000e+00
		endloop
	endfacet
	facet normal 0.000000e+00 0.000000e+00 -1.000000e+00
		outer loop
			vertex 4.755283e+01 8.545085e+01 0.000000e+00
			vertex 4.755283e+01 9.045085e+01 0.000000e+00
			vertex 5.930853e+01 5.663119e+01 0.000000e+00
		endloop
	endfacet
	facet normal 0.000000e+00 0.000000e+00 -1.000000e+00
		outer loop
			vertex 1.816356e+01 0.000000e+00 0.000000e+00
			vertex 2.110249e+01 4.045085e+00 0.000000e+00
			vertex 4.755283e+01 2.545085e+01 0.000000e+00
		endloop
	endfacet
	facet normal 0.000000e+00 0.000000e+00 -1.000000e+00
		outer loop
			vertex 5.636960e+01 5.258610e+01 0.000000e+00
			vertex 4.755283e+01 8.545085e+01 0.000000e+00
			vertex 5.930853e+01 5.663119e+01 0.000000e+00
		endloop
	endfacet
	facet normal -0.000000e+00 0.000000e+00 -1.000000e+00
		outer loop
			vertex 4.755283e+01 2.045085e+01 0.000000e+00
			vertex 1.816356e+01 0.000000e+00 0.000000e+00
			vertex 4.755283e+01 2.545085e+01 0.000000e+00
		endloop
	endfacet
	facet normal 0.000000e+00 0.000000e+00 -1.000000e+00
		outer loop
			vertex 5.636960e+01 5.258610e+01 0.000000e+00
			vertex 5.930853e+01 5.663119e+01 0.000000e+00
			vertex 9.510565e+01 5.590170e+01 0.000000e+00
		endloop
	endfacet
	facet normal 0.000000e+00 0.000000e+00 -1.000000e+00
		outer loop
			vertex 4.755283e+01 2.045085e+01 0.000000e+00
			vertex 4.755283e+01 2.545085e+01 0.000000e+00
			vertex 7.400316e+01 4.045085e+00 0.000000e+00
		endloop
	endfacet
	facet normal -0.000000e+00 0.000000e+00 -1.000000e+00
		outer loop
			vertex 9.035037e+01 5.435661e+01 0.000000e+00
			vertex 5.636960e+01 5.258610e+01 0.000000e+00
			vertex 9.510565e+01 5.590170e+01 0.000000e+00
		endloop
	endfacet
	facet normal 0.000000e+00 0.000000e+00 -1.000000e+00
		outer loop
			vertex 7.694209e+01 7.105427e-15 0.000000e+00
			vertex 4.755283e+01 2.045085e+01 0.000000e+00
			vertex 7.400316e+01 4.045085e+00 0.000000e+00
		endloop
	endfacet
	facet normal 0.000000e+00 -0.000000e+00 -1.000000e+00
		outer loop
			vertex 9.035037e+01 5.435661e+01 0.000000e+00
			vertex 9.510565e+01 5.590170e+01 0.000000e+00
			vertex 6.657396e+01 3.427051e+01 0.000000e+00
		endloop
	endfacet
	facet normal 0.000000e+00 0.000000e+00 -1.000000e+00
		outer loop
			vertex 7.694209e+01 7.105427e-15 0.000000e+00
			vertex 7.400316e+01 4.045085e+00 0.000000e+00
			vertex 6.181867e+01 3.581559e+01 0.000000e+00
		endloop
	endfacet
	facet normal 0.000000e+00 0.000000e+00 -1.000000e+00
		outer loop
			vertex 6.181867e+01 3.581559e+01 0.000000e+00
			vertex 9.035037e+01 5.435661e+01 0.000000e+00
			vertex 6.657396e+01 3.427051e+01 0.000000e+00
		endloop
	endfacet
	facet normal -0.000000e+00 -0.000000e+00 -1.000000e+00
		outer loop
			vertex 6.657396e+01 3.427051e+01 0.000000e+00
			vertex 7.694209e+01 7.105427e-15 0.000000e+00
			vertex 6.181867e+01 3.581559e+01 0.000000e+00
		endloop
	endfacet
	facet normal -9.445631e-01 3.283299e-01 0.000000e+00
		outer loop
			vertex 4.755283e+01 9.045085e+01 0.000000e+00
			vertex 3.579712e+01 5.663119e+01 0.000000e+00
			vertex 3.579712e+01 5.663119e+01 2.000000e+01
		endloop
	endfacet
	facet normal -9.445631e-01 3.283299e-01 0.000000e+00
		outer loop
			vertex 4.755283e+01 9.045085e+01 0.000000e+00
			vertex 3.579712e+01 5.663119e+01 2.000000e+01
			vertex 4.755283e+01 9.045085e+01 2.000000e+01
		endloop
	endfacet
	facet normal -2.037423e-02 9.997924e-01 0.000000e+00
		outer loop
			vertex 3.579712e+01 5.663119e+01 0.000000e+00
			vertex 0.000000e+00 5.590170e+01 0.000000e+00
			vertex 0.000000e+00 5.590170e+01 2.000000e+01
		endloop
	endfacet
	facet normal -2.037423e-02 9.997924e-01 0.000000e+00
		outer loop
			vertex 3.579712e+01 5.663119e+01 0.000000e+00
			vertex 0.000000e+00 5.590170e+01 2.000000e+01
			vertex 3.579712e+01 5.663119e+01 2.000000e+01
		endloop
	endfacet
	facet normal -6.041463e-01 -7.968734e-01 1.633231e-16
		outer loop
			vertex 0.000000e+00 5.590170e+01 0.000000e+00
			vertex 2.813033e+01 3.457481e+01 0.000000e+00
			vertex 2.813033e+01 3.457481e+01 1.971865e+01
		endloop
	endfacet
	facet normal -6.041463e-01 -7.968734e-01 1.144668e-14
		outer loop
			vertex 0.000000e+00 5.590170e+01 0.000000e+00
			vertex 2.813033e+01 3.457481e+01 1.971865e+01
			vertex 2.813033e+01 3.457481e+01 2.000000e+01
		endloop
	endfacet
	facet normal -6.041463e-01 -7.968734e-01 0.000000e+00
		outer loop
			vertex 0.000000e+00 5.590170e+01 0.000000e+00
			vertex 2.813033e+01 3.457481e+01 2.000000e+01
			vertex 0.000000e+00 5.590170e+01 2.000000e+01
		endloop
	endfacet
	facet normal -5.203272e-02 -9.986454e-01 -0.000000e+00
		outer loop
			vertex 4.755283e+00 5.435661e+01 2.000000e+01
			vertex 4.755283e+00 5.435661e+01 0.000000e+00
			vertex 3.446834e+01 5.280847e+01 0.000000e+00
		endloop
	endfacet
	facet normal -5.203272e-02 -9.986454e-01 -9.507427e-17
		outer loop
			vertex 4.755283e+00 5.435661e+01 2.000000e+01
			vertex 3.446834e+01 5.280847e+01 0.000000e+00
			vertex 3.446834e+01 5.280847e+01 2.511835e+00
		endloop
	endfacet
	facet normal -5.203272e-02 -9.986454e-01 -1.057043e-17
		outer loop
			vertex 3.446834e+01 5.280847e+01 2.000000e+01
			vertex 4.755283e+00 5.435661e+01 2.000000e+01
			vertex 3.446834e+01 5.280847e+01 2.511835e+00
		endloop
	endfacet
	facet normal 5.448937e-01 8.385051e-01 6.885824e-17
		outer loop
			vertex 2.943233e+01 3.832050e+01 0.000000e+00
			vertex 4.755283e+00 5.435661e+01 0.000000e+00
			vertex 2.943233e+01 3.832050e+01 1.729799e+01
		endloop
	endfacet
	facet normal 5.448937e-01 8.385051e-01 7.148345e-16
		outer loop
			vertex 4.755283e+00 5.435661e+01 2.000000e+01
			vertex 2.943233e+01 3.832050e+01 2.000000e+01
			vertex 2.943233e+01 3.832050e+01 1.729799e+01
		endloop
	endfacet
	facet normal 5.448937e-01 8.385051e-01 0.000000e+00
		outer loop
			vertex 4.755283e+00 5.435661e+01 2.000000e+01
			vertex 2.943233e+01 3.832050e+01 1.729799e+01
			vertex 4.755283e+00 5.435661e+01 0.000000e+00
		endloop
	endfacet
	facet normal -6.041463e-01 -7.968734e-01 0.000000e+00
		outer loop
			vertex 2.813033e+01 3.457481e+01 0.000000e+00
			vertex 2.853170e+01 3.427051e+01 0.000000e+00
			vertex 2.853170e+01 3.427051e+01 2.000000e+01
		endloop
	endfacet
	facet normal -6.041463e-01 -7.968734e-01 1.076796e-16
		outer loop
			vertex 2.813033e+01 3.457481e+01 0.000000e+00
			vertex 2.853170e+01 3.427051e+01 2.000000e+01
			vertex 2.813033e+01 3.457481e+01 1.971865e+01
		endloop
	endfacet
	facet normal -6.041463e-01 -7.968734e-01 7.546847e-15
		outer loop
			vertex 2.813033e+01 3.457481e+01 1.971865e+01
			vertex 2.853170e+01 3.427051e+01 2.000000e+01
			vertex 2.813033e+01 3.457481e+01 2.000000e+01
		endloop
	endfacet
	facet normal -9.571551e-01 2.895758e-01 0.000000e+00
		outer loop
			vertex 2.853170e+01 3.427051e+01 0.000000e+00
			vertex 1.816356e+01 0.000000e+00 0.000000e+00
			vertex 1.816356e+01 0.000000e+00 2.000000e+01
		endloop
	endfacet
	facet normal -9.571551e-01 2.895758e-01 0.000000e+00
		outer loop
			vertex 2.853170e+01 3.427051e+01 0.000000e+00
			vertex 1.816356e+01 0.000000e+00 2.000000e+01
			vertex 2.853170e+01 3.427051e+01 2.000000e+01
		endloop
	endfacet
	facet normal 5.711801e-01 -8.208247e-01 0.000000e+00
		outer loop
			vertex 1.816356e+01 0.000000e+00 0.000000e+00
			vertex 4.713939e+01 2.016316e+01 0.000000e+00
			vertex 4.713939e+01 2.016316e+01 1.971865e+01
		endloop
	endfacet
	facet normal 5.711801e-01 -8.208247e-01 0.000000e+00
		outer loop
			vertex 1.816356e+01 0.000000e+00 0.000000e+00
			vertex 4.713939e+01 2.016316e+01 1.971865e+01
			vertex 4.713939e+01 2.016316e+01 2.000000e+01
		endloop
	endfacet
	facet normal 5.711801e-01 -8.208247e-01 0.000000e+00
		outer loop
			vertex 1.816356e+01 0.000000e+00 0.000000e+00
			vertex 4.713939e+01 2.016316e+01 2.000000e+01
			vertex 1.816356e+01 0.000000e+00 2.000000e+01
		endloop
	endfacet
	facet normal 9.336892e-01 -3.580844e-01 0.000000e+00
		outer loop
			vertex 2.110249e+01 4.045085e+00 2.000000e+01
			vertex 2.110249e+01 4.045085e+00 0.000000e+00
			vertex 3.175671e+01 3.182548e+01 0.000000e+00
		endloop
	endfacet
	facet normal 9.336892e-01 -3.580844e-01 -7.605941e-16
		outer loop
			vertex 2.110249e+01 4.045085e+00 2.000000e+01
			vertex 3.175671e+01 3.182548e+01 0.000000e+00
			vertex 3.175671e+01 3.182548e+01 2.511835e+00
		endloop
	endfacet
	facet normal 9.336892e-01 -3.580844e-01 -5.846694e-17
		outer loop
			vertex 3.175671e+01 3.182548e+01 2.000000e+01
			vertex 2.110249e+01 4.045085e+00 2.000000e+01
			vertex 3.175671e+01 3.182548e+01 2.511835e+00
		endloop
	endfacet
	facet normal -6.290844e-01 7.773370e-01 1.758023e-16
		outer loop
			vertex 4.397937e+01 2.255892e+01 0.000000e+00
			vertex 2.110249e+01 4.045085e+00 0.000000e+00
			vertex 4.397937e+01 2.255892e+01 1.729799e+01
		endloop
	endfacet
	facet normal -6.290844e-01 7.773370e-01 1.429669e-15
		outer loop
			vertex 2.110249e+01 4.045085e+00 2.000000e+01
			vertex 4.397937e+01 2.255892e+01 2.000000e+01
			vertex 4.397937e+01 2.255892e+01 1.729799e+01
		endloop
	endfacet
	facet normal -6.290844e-01 7.773370e-01 0.000000e+00
		outer loop
			vertex 2.110249e+01 4.045085e+00 2.000000e+01
			vertex 4.397937e+01 2.255892e+01 1.729799e+01
			vertex 2.110249e+01 4.045085e+00 0.000000e+00
		endloop
	endfacet
	facet normal 5.711801e-01 -8.208247e-01 0.000000e+00
		outer loop
			vertex 4.713939e+01 2.016316e+01 0.000000e+00
			vertex 4.755283e+01 2.045085e+01 0.000000e+00
			vertex 4.755283e+01 2.045085e+01 2.000000e+01
		endloop
	endfacet
	facet normal 5.711801e-01 -8.208247e-01 4.341501e-17
		outer loop
			vertex 4.713939e+01 2.016316e+01 0.000000e+00
			vertex 4.755283e+01 2.045085e+01 2.000000e+01
			vertex 4.713939e+01 2.016316e+01 1.971865e+01
		endloop
	endfacet
	facet normal 5.711801e-01 -8.208247e-01 3.042789e-15
		outer loop
			vertex 4.713939e+01 2.016316e+01 1.971865e+01
			vertex 4.755283e+01 2.045085e+01 2.000000e+01
			vertex 4.713939e+01 2.016316e+01 2.000000e+01
		endloop
	endfacet
	facet normal -5.711801e-01 -8.208247e-01 0.000000e+00
		outer loop
			vertex 4.755283e+01 2.045085e+01 0.000000e+00
			vertex 7.694209e+01 7.105427e-15 0.000000e+00
			vertex 7.694209e+01 7.105427e-15 2.000000e+01
		endloop
	endfacet
	facet normal -5.711801e-01 -8.208247e-01 0.000000e+00
		outer loop
			vertex 4.755283e+01 2.045085e+01 0.000000e+00
			vertex 7.694209e+01 7.105427e-15 2.000000e+01
			vertex 4.755283e+01 2.045085e+01 2.000000e+01
		endloop
	endfacet
	facet normal 9.571551e-01 2.895758e-01 -8.166153e-17
		outer loop
			vertex 7.694209e+01 7.105427e-15 0.000000e+00
			vertex 6.671981e+01 3.378841e+01 0.000000e+00
			vertex 6.671981e+01 3.378841e+01 1.971865e+01
		endloop
	endfacet
	facet normal 9.571551e-01 2.895758e-01 -5.723339e-15
		outer loop
			vertex 7.694209e+01 7.105427e-15 0.000000e+00
			vertex 6.671981e+01 3.378841e+01 1.971865e+01
			vertex 6.671981e+01 3.378841e+01 2.000000e+01
		endloop
	endfacet
	facet normal 9.571551e-01 2.895758e-01 -0.000000e+00
		outer loop
			vertex 7.694209e+01 7.105427e-15 0.000000e+00
			vertex 6.671981e+01 3.378841e+01 2.000000e+01
			vertex 7.694209e+01 7.105427e-15 2.000000e+01
		endloop
	endfacet
	facet normal 6.290844e-01 7.773370e-01 0.000000e+00
		outer loop
			vertex 7.400316e+01 4.045085e+00 2.000000e+01
			vertex 7.400316e+01 4.045085e+00 0.000000e+00
			vertex 5.087477e+01 2.276246e+01 0.000000e+00
		endloop
	endfacet
	facet normal 6.290844e-01 7.773370e-01 0.000000e+00
		outer loop
			vertex 7.400316e+01 4.045085e+00 2.000000e+01
			vertex 5.087477e+01 2.276246e+01 0.000000e+00
			vertex 5.087477e+01 2.276246e+01 2.511835e+00
		endloop
	endfacet
	facet normal 6.290844e-01 7.773370e-01 1.597478e-17
		outer loop
			vertex 5.087477e+01 2.276246e+01 2.000000e+01
			vertex 7.400316e+01 4.045085e+00 2.000000e+01
			vertex 5.087477e+01 2.276246e+01 2.511835e+00
		endloop
	endfacet
	facet normal -9.336892e-01 -3.580844e-01 0.000000e+00
		outer loop
			vertex 6.346481e+01 3.152338e+01 0.000000e+00
			vertex 7.400316e+01 4.045085e+00 0.000000e+00
			vertex 6.346481e+01 3.152338e+01 1.729799e+01
		endloop
	endfacet
	facet normal -9.336892e-01 -3.580844e-01 0.000000e+00
		outer loop
			vertex 7.400316e+01 4.045085e+00 2.000000e+01
			vertex 6.346481e+01 3.152338e+01 2.000000e+01
			vertex 6.346481e+01 3.152338e+01 1.729799e+01
		endloop
	endfacet
	facet normal -9.336892e-01 -3.580844e-01 -0.000000e+00
		outer loop
			vertex 7.400316e+01 4.045085e+00 2.000000e+01
			vertex 6.346481e+01 3.152338e+01 1.729799e+01
			vertex 7.400316e+01 4.045085e+00 0.000000e+00
		endloop
	endfacet
	facet normal 9.571551e-01 2.895758e-01 0.000000e+00
		outer loop
			vertex 6.671981e+01 3.378841e+01 0.000000e+00
			vertex 6.657396e+01 3.427051e+01 0.000000e+00
			vertex 6.657396e+01 3.427051e+01 2.000000e+01
		endloop
	endfacet
	facet normal 9.571551e-01 2.895758e-01 -2.319767e-17
		outer loop
			vertex 6.671981e+01 3.378841e+01 0.000000e+00
			vertex 6.657396e+01 3.427051e+01 2.000000e+01
			vertex 6.671981e+01 3.378841e+01 1.971865e+01
		endloop
	endfacet
	facet normal 9.571551e-01 2.895758e-01 -1.625834e-15
		outer loop
			vertex 6.671981e+01 3.378841e+01 1.971865e+01
			vertex 6.657396e+01 3.427051e+01 2.000000e+01
			vertex 6.671981e+01 3.378841e+01 2.000000e+01
		endloop
	endfacet
	facet normal 6.041463e-01 -7.968734e-01 0.000000e+00
		outer loop
			vertex 6.657396e+01 3.427051e+01 0.000000e+00
			vertex 9.510565e+01 5.590170e+01 0.000000e+00
			vertex 9.510565e+01 5.590170e+01 2.000000e+01
		endloop
	endfacet
	facet normal 6.041463e-01 -7.968734e-01 0.000000e+00
		outer loop
			vertex 6.657396e+01 3.427051e+01 0.000000e+00
			vertex 9.510565e+01 5.590170e+01 2.000000e+01
			vertex 6.657396e+01 3.427051e+01 2.000000e+01
		endloop
	endfacet
	facet normal 2.037423e-02 9.997924e-01 -5.103846e-18
		outer loop
			vertex 9.510565e+01 5.590170e+01 0.000000e+00
			vertex 5.981210e+01 5.662093e+01 0.000000e+00
			vertex 5.981210e+01 5.662093e+01 1.971865e+01
		endloop
	endfacet
	facet normal 2.037423e-02 9.997924e-01 -3.577087e-16
		outer loop
			vertex 9.510565e+01 5.590170e+01 0.000000e+00
			vertex 5.981210e+01 5.662093e+01 1.971865e+01
			vertex 5.981210e+01 5.662093e+01 2.000000e+01
		endloop
	endfacet
	facet normal 2.037423e-02 9.997924e-01 -0.000000e+00
		outer loop
			vertex 9.510565e+01 5.590170e+01 0.000000e+00
			vertex 5.981210e+01 5.662093e+01 2.000000e+01
			vertex 9.510565e+01 5.590170e+01 2.000000e+01
		endloop
	endfacet
	facet normal -5.448937e-01 8.385051e-01 0.000000e+00
		outer loop
			vertex 9.035037e+01 5.435661e+01 2.000000e+01
			vertex 9.035037e+01 5.435661e+01 0.000000e+00
			vertex 6.540202e+01 3.814419e+01 0.000000e+00
		endloop
	endfacet
	facet normal -5.448937e-01 8.385051e-01 7.605941e-16
		outer loop
			vertex 9.035037e+01 5.435661e+01 2.000000e+01
			vertex 6.540202e+01 3.814419e+01 0.000000e+00
			vertex 6.540202e+01 3.814419e+01 2.511835e+00
		endloop
	endfacet
	facet normal -5.448937e-01 8.385051e-01 -1.283037e-17
		outer loop
			vertex 6.540202e+01 3.814419e+01 2.000000e+01
			vertex 9.035037e+01 5.435661e+01 2.000000e+01
			vertex 6.540202e+01 3.814419e+01 2.511835e+00
		endloop
	endfacet
	facet normal 5.203272e-02 -9.986454e-01 2.137328e-17
		outer loop
			vertex 6.096043e+01 5.282530e+01 0.000000e+00
			vertex 9.035037e+01 5.435661e+01 0.000000e+00
			vertex 6.096043e+01 5.282530e+01 1.729799e+01
		endloop
	endfacet
	facet normal 5.203272e-02 -9.986454e-01 8.935431e-17
		outer loop
			vertex 9.035037e+01 5.435661e+01 2.000000e+01
			vertex 6.096043e+01 5.282530e+01 2.000000e+01
			vertex 6.096043e+01 5.282530e+01 1.729799e+01
		endloop
	endfacet
	facet normal 5.203272e-02 -9.986454e-01 0.000000e+00
		outer loop
			vertex 9.035037e+01 5.435661e+01 2.000000e+01
			vertex 6.096043e+01 5.282530e+01 1.729799e+01
			vertex 9.035037e+01 5.435661e+01 0.000000e+00
		endloop
	endfacet
	facet normal 2.037423e-02 9.997924e-01 0.000000e+00
		outer loop
			vertex 5.981210e+01 5.662093e+01 0.000000e+00
			vertex 5.930853e+01 5.663119e+01 0.000000e+00
			vertex 5.930853e+01 5.663119e+01 2.000000e+01
		endloop
	endfacet
	facet normal 2.037423e-02 9.997924e-01 -7.341659e-18
		outer loop
			vertex 5.981210e+01 5.662093e+01 0.000000e+00
			vertex 5.930853e+01 5.663119e+01 2.000000e+01
			vertex 5.981210e+01 5.662093e+01 1.971865e+01
		endloop
	endfacet
	facet normal 2.037423e-02 9.997924e-01 -5.145483e-16
		outer loop
			vertex 5.981210e+01 5.662093e+01 1.971865e+01
			vertex 5.930853e+01 5.663119e+01 2.000000e+01
			vertex 5.981210e+01 5.662093e+01 2.000000e+01
		endloop
	endfacet
	facet normal 9.445631e-01 3.283299e-01 0.000000e+00
		outer loop
			vertex 5.930853e+01 5.663119e+01 0.000000e+00
			vertex 4.755283e+01 9.045085e+01 0.000000e+00
			vertex 4.755283e+01 9.045085e+01 2.000000e+01
		endloop
	endfacet
	facet normal 9.445631e-01 3.283299e-01 -0.000000e+00
		outer loop
			vertex 5.930853e+01 5.663119e+01 0.000000e+00
			vertex 4.755283e+01 9.045085e+01 2.000000e+01
			vertex 5.930853e+01 5.663119e+01 2.000000e+01
		endloop
	endfacet
	facet normal 9.658472e-01 -2.591123e-01 -4.959216e-17
		outer loop
			vertex 3.992720e+01 5.702615e+01 0.000000e+00
			vertex 4.755283e+01 8.545085e+01 0.000000e+00
			vertex 3.992720e+01 5.702615e+01 1.729799e+01
		endloop
	endfacet
	facet normal 9.658472e-01 -2.591123e-01 -3.574172e-16
		outer loop
			vertex 4.755283e+01 8.545085e+01 2.000000e+01
			vertex 3.992720e+01 5.702615e+01 2.000000e+01
			vertex 3.992720e+01 5.702615e+01 1.729799e+01
		endloop
	endfacet
	facet normal 9.658472e-01 -2.591123e-01 0.000000e+00
		outer loop
			vertex 4.755283e+01 8.545085e+01 2.000000e+01
			vertex 3.992720e+01 5.702615e+01 1.729799e+01
			vertex 4.755283e+01 8.545085e+01 0.000000e+00
		endloop
	endfacet
	facet normal -9.658472e-01 -2.591123e-01 -0.000000e+00
		outer loop
			vertex 4.755283e+01 8.545085e+01 2.000000e+01
			vertex 4.755283e+01 8.545085e+01 0.000000e+00
			vertex 5.526229e+01 5.671365e+01 0.000000e+00
		endloop
	endfacet
	facet normal -9.658472e-01 -2.591123e-01 -7.605941e-16
		outer loop
			vertex 4.755283e+01 8.545085e+01 2.000000e+01
			vertex 5.526229e+01 5.671365e+01 0.000000e+00
			vertex 5.526229e+01 5.671365e+01 2.511835e+00
		endloop
	endfacet
	facet normal -9.658472e-01 -2.591123e-01 -9.452003e-17
		outer loop
			vertex 5.526229e+01 5.671365e+01 2.000000e+01
			vertex 4.755283e+01 8.545085e+01 2.000000e+01
			vertex 5.526229e+01 5.671365e+01 2.511835e+00
		endloop
	endfacet
	facet normal 9.658472e-01 -2.591123e-01 0.000000e+00
		outer loop
			vertex 3.873605e+01 5.258610e+01 2.000000e+01
			vertex 3.873605e+01 5.258610e+01 0.000000e+00
			vertex 3.992720e+01 5.702615e+01 0.000000e+00
		endloop
	endfacet
	facet normal 9.658472e-01 -2.591123e-01 -4.467715e-17
		outer loop
			vertex 3.873605e+01 5.258610e+01 2.000000e+01
			vertex 3.992720e+01 5.702615e+01 0.000000e+00
			vertex 3.992720e+01 5.702615e+01 1.729799e+01
		endloop
	endfacet
	facet normal 9.658472e-01 -2.591123e-01 -3.174837e-16
		outer loop
			vertex 3.992720e+01 5.702615e+01 2.000000e+01
			vertex 3.873605e+01 5.258610e+01 2.000000e+01
			vertex 3.992720e+01 5.702615e+01 1.729799e+01
		endloop
	endfacet
	facet normal -6.290844e-01 7.773370e-01 0.000000e+00
		outer loop
			vertex 4.755283e+01 2.545085e+01 2.000000e+01
			vertex 4.755283e+01 2.545085e+01 0.000000e+00
			vertex 4.397937e+01 2.255892e+01 0.000000e+00
		endloop
	endfacet
	facet normal -6.290844e-01 7.773370e-01 1.787086e-16
		outer loop
			vertex 4.755283e+01 2.545085e+01 2.000000e+01
			vertex 4.397937e+01 2.255892e+01 0.000000e+00
			vertex 4.397937e+01 2.255892e+01 1.729799e+01
		endloop
	endfacet
	facet normal -6.290844e-01 7.773370e-01 1.125467e-15
		outer loop
			vertex 4.397937e+01 2.255892e+01 2.000000e+01
			vertex 4.755283e+01 2.545085e+01 2.000000e+01
			vertex 4.397937e+01 2.255892e+01 1.729799e+01
		endloop
	endfacet
	facet normal 5.203272e-02 -9.986454e-01 0.000000e+00
		outer loop
			vertex 5.636960e+01 5.258610e+01 2.000000e+01
			vertex 5.636960e+01 5.258610e+01 0.000000e+00
			vertex 6.096043e+01 5.282530e+01 0.000000e+00
		endloop
	endfacet
	facet normal 5.203272e-02 -9.986454e-01 2.233858e-17
		outer loop
			vertex 5.636960e+01 5.258610e+01 2.000000e+01
			vertex 6.096043e+01 5.282530e+01 0.000000e+00
			vertex 6.096043e+01 5.282530e+01 1.729799e+01
		endloop
	endfacet
	facet normal 5.203272e-02 -9.986454e-01 1.368294e-16
		outer loop
			vertex 6.096043e+01 5.282530e+01 2.000000e+01
			vertex 5.636960e+01 5.258610e+01 2.000000e+01
			vertex 6.096043e+01 5.282530e+01 1.729799e+01
		endloop
	endfacet
	facet normal -9.658472e-01 -2.591123e-01 -6.580774e-16
		outer loop
			vertex 5.526229e+01 5.671365e+01 0.000000e+00
			vertex 5.636960e+01 5.258610e+01 0.000000e+00
			vertex 5.526229e+01 5.671365e+01 2.511835e+00
		endloop
	endfacet
	facet normal -9.658472e-01 -2.591123e-01 -9.507427e-17
		outer loop
			vertex 5.636960e+01 5.258610e+01 2.000000e+01
			vertex 5.526229e+01 5.671365e+01 2.000000e+01
			vertex 5.526229e+01 5.671365e+01 2.511835e+00
		endloop
	endfacet
	facet normal -9.658472e-01 -2.591123e-01 -0.000000e+00
		outer loop
			vertex 5.636960e+01 5.258610e+01 2.000000e+01
			vertex 5.526229e+01 5.671365e+01 2.511835e+00
			vertex 5.636960e+01 5.258610e+01 0.000000e+00
		endloop
	endfacet
	facet normal 6.290844e-01 7.773370e-01 1.112213e-16
		outer loop
			vertex 5.087477e+01 2.276246e+01 0.000000e+00
			vertex 4.755283e+01 2.545085e+01 0.000000e+00
			vertex 5.087477e+01 2.276246e+01 2.511835e+00
		endloop
	endfacet
	facet normal 6.290844e-01 7.773370e-01 0.000000e+00
		outer loop
			vertex 4.755283e+01 2.545085e+01 2.000000e+01
			vertex 5.087477e+01 2.276246e+01 2.000000e+01
			vertex 5.087477e+01 2.276246e+01 2.511835e+00
		endloop
	endfacet
	facet normal 6.290844e-01 7.773370e-01 0.000000e+00
		outer loop
			vertex 4.755283e+01 2.545085e+01 2.000000e+01
			vertex 5.087477e+01 2.276246e+01 2.511835e+00
			vertex 4.755283e+01 2.545085e+01 0.000000e+00
		endloop
	endfacet
	facet normal -9.336892e-01 -3.580844e-01 -0.000000e+00
		outer loop
			vertex 6.181867e+01 3.581559e+01 2.000000e+01
			vertex 6.181867e+01 3.581559e+01 0.000000e+00
			vertex 6.346481e+01 3.152338e+01 0.000000e+00
		endloop
	endfacet
	facet normal -9.336892e-01 -3.580844e-01 0.000000e+00
		outer loop
			vertex 6.181867e+01 3.581559e+01 2.000000e+01
			vertex 6.346481e+01 3.152338e+01 0.000000e+00
			vertex 6.346481e+01 3.152338e+01 1.729799e+01
		endloop
	endfacet
	facet normal -9.336892e-01 -3.580844e-01 -0.000000e+00
		outer loop
			vertex 6.346481e+01 3.152338e+01 2.000000e+01
			vertex 6.181867e+01 3.581559e+01 2.000000e+01
			vertex 6.346481e+01 3.152338e+01 1.729799e+01
		endloop
	endfacet
	facet normal -5.448937e-01 8.385051e-01 -8.932893e-17
		outer loop
			vertex 6.540202e+01 3.814419e+01 0.000000e+00
			vertex 6.181867e+01 3.581559e+01 0.000000e+00
			vertex 6.540202e+01 3.814419e+01 2.511835e+00
		endloop
	endfacet
	facet normal -5.448937e-01 8.385051e-01 -2.376857e-17
		outer loop
			vertex 6.181867e+01 3.581559e+01 2.000000e+01
			vertex 6.540202e+01 3.814419e+01 2.000000e+01
			vertex 6.540202e+01 3.814419e+01 2.511835e+00
		endloop
	endfacet
	facet normal -5.448937e-01 8.385051e-01 0.000000e+00
		outer loop
			vertex 6.181867e+01 3.581559e+01 2.000000e+01
			vertex 6.540202e+01 3.814419e+01 2.511835e+00
			vertex 6.181867e+01 3.581559e+01 0.000000e+00
		endloop
	endfacet
	facet normal -5.203272e-02 -9.986454e-01 -7.359454e-17
		outer loop
			vertex 3.446834e+01 5.280847e+01 0.000000e+00
			vertex 3.873605e+01 5.258610e+01 0.000000e+00
			vertex 3.446834e+01 5.280847e+01 2.511835e+00
		endloop
	endfacet
	facet normal -5.203272e-02 -9.986454e-01 -1.039875e-17
		outer loop
			vertex 3.873605e+01 5.258610e+01 2.000000e+01
			vertex 3.446834e+01 5.280847e+01 2.000000e+01
			vertex 3.446834e+01 5.280847e+01 2.511835e+00
		endloop
	endfacet
	facet normal -5.203272e-02 -9.986454e-01 -0.000000e+00
		outer loop
			vertex 3.873605e+01 5.258610e+01 2.000000e+01
			vertex 3.446834e+01 5.280847e+01 2.511835e+00
			vertex 3.873605e+01 5.258610e+01 0.000000e+00
		endloop
	endfacet
	facet normal 5.448937e-01 8.385051e-01 0.000000e+00
		outer loop
			vertex 3.328698e+01 3.581559e+01 2.000000e+01
			vertex 3.328698e+01 3.581559e+01 0.000000e+00
			vertex 2.943233e+01 3.832050e+01 0.000000e+00
		endloop
	endfacet
	facet normal 5.448937e-01 8.385051e-01 6.701573e-17
		outer loop
			vertex 3.328698e+01 3.581559e+01 2.000000e+01
			vertex 2.943233e+01 3.832050e+01 0.000000e+00
			vertex 2.943233e+01 3.832050e+01 1.729799e+01
		endloop
	endfacet
	facet normal 5.448937e-01 8.385051e-01 4.408230e-16
		outer loop
			vertex 2.943233e+01 3.832050e+01 2.000000e+01
			vertex 3.328698e+01 3.581559e+01 2.000000e+01
			vertex 2.943233e+01 3.832050e+01 1.729799e+01
		endloop
	endfacet
	facet normal 9.336892e-01 -3.580844e-01 -4.070647e-16
		outer loop
			vertex 3.175671e+01 3.182548e+01 0.000000e+00
			vertex 3.328698e+01 3.581559e+01 0.000000e+00
			vertex 3.175671e+01 3.182548e+01 2.511835e+00
		endloop
	endfacet
	facet normal 9.336892e-01 -3.580844e-01 -5.942142e-17
		outer loop
			vertex 3.328698e+01 3.581559e+01 2.000000e+01
			vertex 3.175671e+01 3.182548e+01 2.000000e+01
			vertex 3.175671e+01 3.182548e+01 2.511835e+00
		endloop
	endfacet
	facet normal 9.336892e-01 -3.580844e-01 0.000000e+00
		outer loop
			vertex 3.328698e+01 3.581559e+01 2.000000e+01
			vertex 3.175671e+01 3.182548e+01 2.511835e+00
			vertex 3.328698e+01 3.581559e+01 0.000000e+00
		endloop
	endfacet
endsolid Sketchedframestarmesh
