solid Sketchtestmesh
	facet normal 0.000000e+00 0.000000e+00 1.000000e+00
		outer loop
			vertex 0.000000e+00 3.000000e+00 0.000000e+00
			vertex 1.468305e-01 2.072949e+00 0.000000e+00
			vertex 5.729490e-01 1.236644e+00 0.000000e+00
		endloop
	endfacet
	facet normal 0.000000e+00 0.000000e+00 1.000000e+00
		outer loop
			vertex 5.729490e-01 1.236644e+00 0.000000e+00
			vertex 1.236644e+00 5.729490e-01 0.000000e+00
			vertex 2.072949e+00 1.468305e-01 0.000000e+00
		endloop
	endfacet
	facet normal 0.000000e+00 0.000000e+00 1.000000e+00
		outer loop
			vertex 2.392705e+01 1.468305e-01 0.000000e+00
			vertex 2.476336e+01 5.729490e-01 0.000000e+00
			vertex 2.542705e+01 1.236644e+00 0.000000e+00
		endloop
	endfacet
	facet normal 0.000000e+00 0.000000e+00 1.000000e+00
		outer loop
			vertex 2.585317e+01 2.392705e+01 0.000000e+00
			vertex 2.542705e+01 2.476336e+01 0.000000e+00
			vertex 2.476336e+01 2.542705e+01 0.000000e+00
		endloop
	endfacet
	facet normal 0.000000e+00 0.000000e+00 1.000000e+00
		outer loop
			vertex 2.072949e+00 2.585317e+01 0.000000e+00
			vertex 1.236644e+00 2.542705e+01 0.000000e+00
			vertex 5.729490e-01 2.476336e+01 0.000000e+00
		endloop
	endfacet
	facet normal 0.000000e+00 0.000000e+00 1.000000e+00
		outer loop
			vertex 0.000000e+00 3.000000e+00 0.000000e+00
			vertex 5.729490e-01 1.236644e+00 0.000000e+00
			vertex 2.072949e+00 1.468305e-01 0.000000e+00
		endloop
	endfacet
	facet normal 0.000000e+00 0.000000e+00 1.000000e+00
		outer loop
			vertex 2.392705e+01 1.468305e-01 0.000000e+00
			vertex 2.542705e+01 1.236644e+00 0.000000e+00
			vertex 2.585317e+01 2.072949e+00 0.000000e+00
		endloop
	endfacet
	facet normal 0.000000e+00 0.000000e+00 1.000000e+00
		outer loop
			vertex 2.585317e+01 2.392705e+01 0.000000e+00
			vertex 2.476336e+01 2.542705e+01 0.000000e+00
			vertex 2.392705e+01 2.585317e+01 0.000000e+00
		endloop
	endfacet
	facet normal 0.000000e+00 0.000000e+00 1.000000e+00
		outer loop
			vertex 2.072949e+00 2.585317e+01 0.000000e+00
			vertex 5.729490e-01 2.476336e+01 0.000000e+00
			vertex 1.468305e-01 2.392705e+01 0.000000e+00
		endloop
	endfacet
	facet normal 0.000000e+00 0.000000e+00 1.000000e+00
		outer loop
			vertex 2.392705e+01 2.585317e+01 0.000000e+00
			vertex 2.300000e+01 2.600000e+01 0.000000e+00
			vertex 3.000000e+00 2.600000e+01 0.000000e+00
		endloop
	endfacet
	facet normal 0.000000e+00 0.000000e+00 1.000000e+00
		outer loop
			vertex 3.000000e+00 2.600000e+01 0.000000e+00
			vertex 2.072949e+00 2.585317e+01 0.000000e+00
			vertex 1.468305e-01 2.392705e+01 0.000000e+00
		endloop
	endfacet
	facet normal 0.000000e+00 0.000000e+00 1.000000e+00
		outer loop
			vertex 1.468305e-01 2.392705e+01 0.000000e+00
			vertex 0.000000e+00 2.300000e+01 0.000000e+00
			vertex 0.000000e+00 3.000000e+00 0.000000e+00
		endloop
	endfacet
	facet normal 0.000000e+00 0.000000e+00 1.000000e+00
		outer loop
			vertex 0.000000e+00 3.000000e+00 0.000000e+00
			vertex 2.072949e+00 1.468305e-01 0.000000e+00
			vertex 3.000000e+00 0.000000e+00 0.000000e+00
		endloop
	endfacet
	facet normal 0.000000e+00 0.000000e+00 1.000000e+00
		outer loop
			vertex 3.000000e+00 0.000000e+00 0.000000e+00
			vertex 2.300000e+01 0.000000e+00 0.000000e+00
			vertex 2.392705e+01 1.468305e-01 0.000000e+00
		endloop
	endfacet
	facet normal 0.000000e+00 0.000000e+00 1.000000e+00
		outer loop
			vertex 2.392705e+01 1.468305e-01 0.000000e+00
			vertex 2.585317e+01 2.072949e+00 0.000000e+00
			vertex 2.600000e+01 3.000000e+00 0.000000e+00
		endloop
	endfacet
	facet normal 0.000000e+00 -0.000000e+00 1.000000e+00
		outer loop
			vertex 2.600000e+01 3.000000e+00 0.000000e+00
			vertex 2.600000e+01 2.300000e+01 0.000000e+00
			vertex 2.585317e+01 2.392705e+01 0.000000e+00
		endloop
	endfacet
	facet normal 0.000000e+00 0.000000e+00 1.000000e+00
		outer loop
			vertex 2.585317e+01 2.392705e+01 0.000000e+00
			vertex 2.392705e+01 2.585317e+01 0.000000e+00
			vertex 3.000000e+00 2.600000e+01 0.000000e+00
		endloop
	endfacet
	facet normal 0.000000e+00 0.000000e+00 1.000000e+00
		outer loop
			vertex 3.000000e+00 2.600000e+01 0.000000e+00
			vertex 1.468305e-01 2.392705e+01 0.000000e+00
			vertex 0.000000e+00 3.000000e+00 0.000000e+00
		endloop
	endfacet
	facet normal 0.000000e+00 0.000000e+00 1.000000e+00
		outer loop
			vertex 0.000000e+00 3.000000e+00 0.000000e+00
			vertex 3.000000e+00 0.000000e+00 0.000000e+00
			vertex 2.392705e+01 1.468305e-01 0.000000e+00
		endloop
	endfacet
	facet normal 0.000000e+00 0.000000e+00 1.000000e+00
		outer loop
			vertex 2.392705e+01 1.468305e-01 0.000000e+00
			vertex 2.600000e+01 3.000000e+00 0.000000e+00
			vertex 2.585317e+01 2.392705e+01 0.000000e+00
		endloop
	endfacet
	facet normal 0.000000e+00 0.000000e+00 1.000000e+00
		outer loop
			vertex 2.585317e+01 2.392705e+01 0.000000e+00
			vertex 3.000000e+00 2.600000e+01 0.000000e+00
			vertex 0.000000e+00 3.000000e+00 0.000000e+00
		endloop
	endfacet
	facet normal -0.000000e+00 0.000000e+00 1.000000e+00
		outer loop
			vertex 0.000000e+00 3.000000e+00 0.000000e+00
			vertex 2.392705e+01 1.468305e-01 0.000000e+00
			vertex 2.585317e+01 2.392705e+01 0.000000e+00
		endloop
	endfacet
	facet normal 0.000000e+00 0.000000e+00 1.000000e+00
		outer loop
			vertex 0.000000e+00 3.000000e+00 0.000000e+00
			vertex 1.468305e-01 2.072949e+00 0.000000e+00
			vertex 5.729490e-01 1.236644e+00 0.000000e+00
		endloop
	endfacet
	facet normal 0.000000e+00 0.000000e+00 1.000000e+00
		outer loop
			vertex 5.729490e-01 1.236644e+00 0.000000e+00
			vertex 1.236644e+00 5.729490e-01 0.000000e+00
			vertex 2.072949e+00 1.468305e-01 0.000000e+00
		endloop
	endfacet
	facet normal 0.000000e+00 0.000000e+00 1.000000e+00
		outer loop
			vertex 2.392705e+01 1.468305e-01 0.000000e+00
			vertex 2.476336e+01 5.729490e-01 0.000000e+00
			vertex 2.542705e+01 1.236644e+00 0.000000e+00
		endloop
	endfacet
	facet normal 0.000000e+00 0.000000e+00 1.000000e+00
		outer loop
			vertex 2.585317e+01 2.392705e+01 0.000000e+00
			vertex 2.542705e+01 2.476336e+01 0.000000e+00
			vertex 2.476336e+01 2.542705e+01 0.000000e+00
		endloop
	endfacet
	facet normal 0.000000e+00 0.000000e+00 1.000000e+00
		outer loop
			vertex 2.072949e+00 2.585317e+01 0.000000e+00
			vertex 1.236644e+00 2.542705e+01 0.000000e+00
			vertex 5.729490e-01 2.476336e+01 0.000000e+00
		endloop
	endfacet
	facet normal 0.000000e+00 0.000000e+00 1.000000e+00
		outer loop
			vertex 0.000000e+00 3.000000e+00 0.000000e+00
			vertex 5.729490e-01 1.236644e+00 0.000000e+00
			vertex 2.072949e+00 1.468305e-01 0.000000e+00
		endloop
	endfacet
	facet normal 0.000000e+00 0.000000e+00 1.000000e+00
		outer loop
			vertex 2.392705e+01 1.468305e-01 0.000000e+00
			vertex 2.542705e+01 1.236644e+00 0.000000e+00
			vertex 2.585317e+01 2.072949e+00 0.000000e+00
		endloop
	endfacet
	facet normal 0.000000e+00 0.000000e+00 1.000000e+00
		outer loop
			vertex 2.585317e+01 2.392705e+01 0.000000e+00
			vertex 2.476336e+01 2.542705e+01 0.000000e+00
			vertex 2.392705e+01 2.585317e+01 0.000000e+00
		endloop
	endfacet
	facet normal 0.000000e+00 0.000000e+00 1.000000e+00
		outer loop
			vertex 2.072949e+00 2.585317e+01 0.000000e+00
			vertex 5.729490e-01 2.476336e+01 0.000000e+00
			vertex 1.468305e-01 2.392705e+01 0.000000e+00
		endloop
	endfacet
	facet normal 0.000000e+00 0.000000e+00 1.000000e+00
		outer loop
			vertex 2.392705e+01 2.585317e+01 0.000000e+00
			vertex 2.300000e+01 2.600000e+01 0.000000e+00
			vertex 3.000000e+00 2.600000e+01 0.000000e+00
		endloop
	endfacet
	facet normal 0.000000e+00 0.000000e+00 1.000000e+00
		outer loop
			vertex 3.000000e+00 2.600000e+01 0.000000e+00
			vertex 2.072949e+00 2.585317e+01 0.000000e+00
			vertex 1.468305e-01 2.392705e+01 0.000000e+00
		endloop
	endfacet
	facet normal 0.000000e+00 0.000000e+00 1.000000e+00
		outer loop
			vertex 1.468305e-01 2.392705e+01 0.000000e+00
			vertex 0.000000e+00 2.300000e+01 0.000000e+00
			vertex 0.000000e+00 3.000000e+00 0.000000e+00
		endloop
	endfacet
	facet normal 0.000000e+00 0.000000e+00 1.000000e+00
		outer loop
			vertex 0.000000e+00 3.000000e+00 0.000000e+00
			vertex 2.072949e+00 1.468305e-01 0.000000e+00
			vertex 3.000000e+00 0.000000e+00 0.000000e+00
		endloop
	endfacet
	facet normal 0.000000e+00 0.000000e+00 1.000000e+00
		outer loop
			vertex 3.000000e+00 0.000000e+00 0.000000e+00
			vertex 2.300000e+01 0.000000e+00 0.000000e+00
			vertex 2.392705e+01 1.468305e-01 0.000000e+00
		endloop
	endfacet
	facet normal 0.000000e+00 0.000000e+00 1.000000e+00
		outer loop
			vertex 2.392705e+01 1.468305e-01 0.000000e+00
			vertex 2.585317e+01 2.072949e+00 0.000000e+00
			vertex 2.600000e+01 3.000000e+00 0.000000e+00
		endloop
	endfacet
	facet normal 0.000000e+00 -0.000000e+00 1.000000e+00
		outer loop
			vertex 2.600000e+01 3.000000e+00 0.000000e+00
			vertex 2.600000e+01 2.300000e+01 0.000000e+00
			vertex 2.585317e+01 2.392705e+01 0.000000e+00
		endloop
	endfacet
	facet normal 0.000000e+00 0.000000e+00 1.000000e+00
		outer loop
			vertex 2.585317e+01 2.392705e+01 0.000000e+00
			vertex 2.392705e+01 2.585317e+01 0.000000e+00
			vertex 3.000000e+00 2.600000e+01 0.000000e+00
		endloop
	endfacet
	facet normal 0.000000e+00 0.000000e+00 1.000000e+00
		outer loop
			vertex 3.000000e+00 2.600000e+01 0.000000e+00
			vertex 1.468305e-01 2.392705e+01 0.000000e+00
			vertex 0.000000e+00 3.000000e+00 0.000000e+00
		endloop
	endfacet
	facet normal 0.000000e+00 0.000000e+00 1.000000e+00
		outer loop
			vertex 0.000000e+00 3.000000e+00 0.000000e+00
			vertex 3.000000e+00 0.000000e+00 0.000000e+00
			vertex 2.392705e+01 1.468305e-01 0.000000e+00
		endloop
	endfacet
	facet normal 0.000000e+00 0.000000e+00 1.000000e+00
		outer loop
			vertex 2.392705e+01 1.468305e-01 0.000000e+00
			vertex 2.600000e+01 3.000000e+00 0.000000e+00
			vertex 2.585317e+01 2.392705e+01 0.000000e+00
		endloop
	endfacet
	facet normal 0.000000e+00 0.000000e+00 1.000000e+00
		outer loop
			vertex 2.585317e+01 2.392705e+01 0.000000e+00
			vertex 3.000000e+00 2.600000e+01 0.000000e+00
			vertex 0.000000e+00 3.000000e+00 0.000000e+00
		endloop
	endfacet
	facet normal -0.000000e+00 0.000000e+00 1.000000e+00
		outer loop
			vertex 0.000000e+00 3.000000e+00 0.000000e+00
			vertex 2.392705e+01 1.468305e-01 0.000000e+00
			vertex 2.585317e+01 2.392705e+01 0.000000e+00
		endloop
	endfacet
	facet normal -9.876883e-01 -1.564345e-01 0.000000e+00
		outer loop
			vertex 0.000000e+00 3.000000e+00 1.000000e+00
			vertex 1.468305e-01 2.072949e+00 1.000000e+00
			vertex 1.468305e-01 2.072949e+00 1.000000e+01
		endloop
	endfacet
	facet normal -9.876883e-01 -1.564345e-01 0.000000e+00
		outer loop
			vertex 0.000000e+00 3.000000e+00 1.000000e+00
			vertex 1.468305e-01 2.072949e+00 1.000000e+01
			vertex 0.000000e+00 3.000000e+00 1.000000e+01
		endloop
	endfacet
	facet normal -8.910065e-01 -4.539905e-01 0.000000e+00
		outer loop
			vertex 1.468305e-01 2.072949e+00 1.000000e+00
			vertex 5.729490e-01 1.236644e+00 1.000000e+00
			vertex 5.729490e-01 1.236644e+00 1.000000e+01
		endloop
	endfacet
	facet normal -8.910065e-01 -4.539905e-01 0.000000e+00
		outer loop
			vertex 1.468305e-01 2.072949e+00 1.000000e+00
			vertex 5.729490e-01 1.236644e+00 1.000000e+01
			vertex 1.468305e-01 2.072949e+00 1.000000e+01
		endloop
	endfacet
	facet normal -7.071068e-01 -7.071068e-01 0.000000e+00
		outer loop
			vertex 5.729490e-01 1.236644e+00 1.000000e+00
			vertex 1.236644e+00 5.729490e-01 1.000000e+00
			vertex 1.236644e+00 5.729490e-01 1.000000e+01
		endloop
	endfacet
	facet normal -7.071068e-01 -7.071068e-01 0.000000e+00
		outer loop
			vertex 5.729490e-01 1.236644e+00 1.000000e+00
			vertex 1.236644e+00 5.729490e-01 1.000000e+01
			vertex 5.729490e-01 1.236644e+00 1.000000e+01
		endloop
	endfacet
	facet normal -4.539905e-01 -8.910065e-01 0.000000e+00
		outer loop
			vertex 1.236644e+00 5.729490e-01 1.000000e+00
			vertex 2.072949e+00 1.468305e-01 1.000000e+00
			vertex 2.072949e+00 1.468305e-01 1.000000e+01
		endloop
	endfacet
	facet normal -4.539905e-01 -8.910065e-01 0.000000e+00
		outer loop
			vertex 1.236644e+00 5.729490e-01 1.000000e+00
			vertex 2.072949e+00 1.468305e-01 1.000000e+01
			vertex 1.236644e+00 5.729490e-01 1.000000e+01
		endloop
	endfacet
	facet normal -1.564345e-01 -9.876883e-01 0.000000e+00
		outer loop
			vertex 2.072949e+00 1.468305e-01 1.000000e+00
			vertex 3.000000e+00 0.000000e+00 1.000000e+00
			vertex 3.000000e+00 0.000000e+00 1.000000e+01
		endloop
	endfacet
	facet normal -1.564345e-01 -9.876883e-01 0.000000e+00
		outer loop
			vertex 2.072949e+00 1.468305e-01 1.000000e+00
			vertex 3.000000e+00 0.000000e+00 1.000000e+01
			vertex 2.072949e+00 1.468305e-01 1.000000e+01
		endloop
	endfacet
	facet normal nan nan nan
		outer loop
			vertex 3.000000e+00 0.000000e+00 1.000000e+00
			vertex 3.000000e+00 0.000000e+00 1.000000e+00
			vertex 3.000000e+00 0.000000e+00 1.000000e+01
		endloop
	endfacet
	facet normal nan nan nan
		outer loop
			vertex 3.000000e+00 0.000000e+00 1.000000e+00
			vertex 3.000000e+00 0.000000e+00 1.000000e+01
			vertex 3.000000e+00 0.000000e+00 1.000000e+01
		endloop
	endfacet
	facet normal 0.000000e+00 -1.000000e+00 0.000000e+00
		outer loop
			vertex 3.000000e+00 0.000000e+00 1.000000e+00
			vertex 2.300000e+01 0.000000e+00 1.000000e+00
			vertex 2.300000e+01 0.000000e+00 1.000000e+01
		endloop
	endfacet
	facet normal 0.000000e+00 -1.000000e+00 0.000000e+00
		outer loop
			vertex 3.000000e+00 0.000000e+00 1.000000e+00
			vertex 2.300000e+01 0.000000e+00 1.000000e+01
			vertex 3.000000e+00 0.000000e+00 1.000000e+01
		endloop
	endfacet
	facet normal nan nan nan
		outer loop
			vertex 2.300000e+01 0.000000e+00 1.000000e+00
			vertex 2.300000e+01 0.000000e+00 1.000000e+00
			vertex 2.300000e+01 0.000000e+00 1.000000e+01
		endloop
	endfacet
	facet normal nan nan nan
		outer loop
			vertex 2.300000e+01 0.000000e+00 1.000000e+00
			vertex 2.300000e+01 0.000000e+00 1.000000e+01
			vertex 2.300000e+01 0.000000e+00 1.000000e+01
		endloop
	endfacet
	facet normal 1.564345e-01 -9.876883e-01 0.000000e+00
		outer loop
			vertex 2.300000e+01 0.000000e+00 1.000000e+00
			vertex 2.392705e+01 1.468305e-01 1.000000e+00
			vertex 2.392705e+01 1.468305e-01 1.000000e+01
		endloop
	endfacet
	facet normal 1.564345e-01 -9.876883e-01 0.000000e+00
		outer loop
			vertex 2.300000e+01 0.000000e+00 1.000000e+00
			vertex 2.392705e+01 1.468305e-01 1.000000e+01
			vertex 2.300000e+01 0.000000e+00 1.000000e+01
		endloop
	endfacet
	facet normal 4.539905e-01 -8.910065e-01 0.000000e+00
		outer loop
			vertex 2.392705e+01 1.468305e-01 1.000000e+00
			vertex 2.476336e+01 5.729490e-01 1.000000e+00
			vertex 2.476336e+01 5.729490e-01 1.000000e+01
		endloop
	endfacet
	facet normal 4.539905e-01 -8.910065e-01 0.000000e+00
		outer loop
			vertex 2.392705e+01 1.468305e-01 1.000000e+00
			vertex 2.476336e+01 5.729490e-01 1.000000e+01
			vertex 2.392705e+01 1.468305e-01 1.000000e+01
		endloop
	endfacet
	facet normal 7.071068e-01 -7.071068e-01 0.000000e+00
		outer loop
			vertex 2.476336e+01 5.729490e-01 1.000000e+00
			vertex 2.542705e+01 1.236644e+00 1.000000e+00
			vertex 2.542705e+01 1.236644e+00 1.000000e+01
		endloop
	endfacet
	facet normal 7.071068e-01 -7.071068e-01 0.000000e+00
		outer loop
			vertex 2.476336e+01 5.729490e-01 1.000000e+00
			vertex 2.542705e+01 1.236644e+00 1.000000e+01
			vertex 2.476336e+01 5.729490e-01 1.000000e+01
		endloop
	endfacet
	facet normal 8.910065e-01 -4.539905e-01 0.000000e+00
		outer loop
			vertex 2.542705e+01 1.236644e+00 1.000000e+00
			vertex 2.585317e+01 2.072949e+00 1.000000e+00
			vertex 2.585317e+01 2.072949e+00 1.000000e+01
		endloop
	endfacet
	facet normal 8.910065e-01 -4.539905e-01 0.000000e+00
		outer loop
			vertex 2.542705e+01 1.236644e+00 1.000000e+00
			vertex 2.585317e+01 2.072949e+00 1.000000e+01
			vertex 2.542705e+01 1.236644e+00 1.000000e+01
		endloop
	endfacet
	facet normal 9.876883e-01 -1.564345e-01 0.000000e+00
		outer loop
			vertex 2.585317e+01 2.072949e+00 1.000000e+00
			vertex 2.600000e+01 3.000000e+00 1.000000e+00
			vertex 2.600000e+01 3.000000e+00 1.000000e+01
		endloop
	endfacet
	facet normal 9.876883e-01 -1.564345e-01 0.000000e+00
		outer loop
			vertex 2.585317e+01 2.072949e+00 1.000000e+00
			vertex 2.600000e+01 3.000000e+00 1.000000e+01
			vertex 2.585317e+01 2.072949e+00 1.000000e+01
		endloop
	endfacet
	facet normal nan nan nan
		outer loop
			vertex 2.600000e+01 3.000000e+00 1.000000e+00
			vertex 2.600000e+01 3.000000e+00 1.000000e+00
			vertex 2.600000e+01 3.000000e+00 1.000000e+01
		endloop
	endfacet
	facet normal nan nan nan
		outer loop
			vertex 2.600000e+01 3.000000e+00 1.000000e+00
			vertex 2.600000e+01 3.000000e+00 1.000000e+01
			vertex 2.600000e+01 3.000000e+00 1.000000e+01
		endloop
	endfacet
	facet normal 1.000000e+00 0.000000e+00 0.000000e+00
		outer loop
			vertex 2.600000e+01 3.000000e+00 1.000000e+00
			vertex 2.600000e+01 2.300000e+01 1.000000e+00
			vertex 2.600000e+01 2.300000e+01 1.000000e+01
		endloop
	endfacet
	facet normal 1.000000e+00 0.000000e+00 0.000000e+00
		outer loop
			vertex 2.600000e+01 3.000000e+00 1.000000e+00
			vertex 2.600000e+01 2.300000e+01 1.000000e+01
			vertex 2.600000e+01 3.000000e+00 1.000000e+01
		endloop
	endfacet
	facet normal nan nan nan
		outer loop
			vertex 2.600000e+01 2.300000e+01 1.000000e+00
			vertex 2.600000e+01 2.300000e+01 1.000000e+00
			vertex 2.600000e+01 2.300000e+01 1.000000e+01
		endloop
	endfacet
	facet normal nan nan nan
		outer loop
			vertex 2.600000e+01 2.300000e+01 1.000000e+00
			vertex 2.600000e+01 2.300000e+01 1.000000e+01
			vertex 2.600000e+01 2.300000e+01 1.000000e+01
		endloop
	endfacet
	facet normal 9.876883e-01 1.564345e-01 0.000000e+00
		outer loop
			vertex 2.600000e+01 2.300000e+01 1.000000e+00
			vertex 2.585317e+01 2.392705e+01 1.000000e+00
			vertex 2.585317e+01 2.392705e+01 1.000000e+01
		endloop
	endfacet
	facet normal 9.876883e-01 1.564345e-01 -0.000000e+00
		outer loop
			vertex 2.600000e+01 2.300000e+01 1.000000e+00
			vertex 2.585317e+01 2.392705e+01 1.000000e+01
			vertex 2.600000e+01 2.300000e+01 1.000000e+01
		endloop
	endfacet
	facet normal 8.910065e-01 4.539905e-01 0.000000e+00
		outer loop
			vertex 2.585317e+01 2.392705e+01 1.000000e+00
			vertex 2.542705e+01 2.476336e+01 1.000000e+00
			vertex 2.542705e+01 2.476336e+01 1.000000e+01
		endloop
	endfacet
	facet normal 8.910065e-01 4.539905e-01 -0.000000e+00
		outer loop
			vertex 2.585317e+01 2.392705e+01 1.000000e+00
			vertex 2.542705e+01 2.476336e+01 1.000000e+01
			vertex 2.585317e+01 2.392705e+01 1.000000e+01
		endloop
	endfacet
	facet normal 7.071068e-01 7.071068e-01 0.000000e+00
		outer loop
			vertex 2.542705e+01 2.476336e+01 1.000000e+00
			vertex 2.476336e+01 2.542705e+01 1.000000e+00
			vertex 2.476336e+01 2.542705e+01 1.000000e+01
		endloop
	endfacet
	facet normal 7.071068e-01 7.071068e-01 -0.000000e+00
		outer loop
			vertex 2.542705e+01 2.476336e+01 1.000000e+00
			vertex 2.476336e+01 2.542705e+01 1.000000e+01
			vertex 2.542705e+01 2.476336e+01 1.000000e+01
		endloop
	endfacet
	facet normal 4.539905e-01 8.910065e-01 0.000000e+00
		outer loop
			vertex 2.476336e+01 2.542705e+01 1.000000e+00
			vertex 2.392705e+01 2.585317e+01 1.000000e+00
			vertex 2.392705e+01 2.585317e+01 1.000000e+01
		endloop
	endfacet
	facet normal 4.539905e-01 8.910065e-01 -0.000000e+00
		outer loop
			vertex 2.476336e+01 2.542705e+01 1.000000e+00
			vertex 2.392705e+01 2.585317e+01 1.000000e+01
			vertex 2.476336e+01 2.542705e+01 1.000000e+01
		endloop
	endfacet
	facet normal 1.564345e-01 9.876883e-01 0.000000e+00
		outer loop
			vertex 2.392705e+01 2.585317e+01 1.000000e+00
			vertex 2.300000e+01 2.600000e+01 1.000000e+00
			vertex 2.300000e+01 2.600000e+01 1.000000e+01
		endloop
	endfacet
	facet normal 1.564345e-01 9.876883e-01 -0.000000e+00
		outer loop
			vertex 2.392705e+01 2.585317e+01 1.000000e+00
			vertex 2.300000e+01 2.600000e+01 1.000000e+01
			vertex 2.392705e+01 2.585317e+01 1.000000e+01
		endloop
	endfacet
	facet normal nan nan nan
		outer loop
			vertex 2.300000e+01 2.600000e+01 1.000000e+00
			vertex 2.300000e+01 2.600000e+01 1.000000e+00
			vertex 2.300000e+01 2.600000e+01 1.000000e+01
		endloop
	endfacet
	facet normal nan nan nan
		outer loop
			vertex 2.300000e+01 2.600000e+01 1.000000e+00
			vertex 2.300000e+01 2.600000e+01 1.000000e+01
			vertex 2.300000e+01 2.600000e+01 1.000000e+01
		endloop
	endfacet
	facet normal 0.000000e+00 1.000000e+00 0.000000e+00
		outer loop
			vertex 2.300000e+01 2.600000e+01 1.000000e+00
			vertex 3.000000e+00 2.600000e+01 1.000000e+00
			vertex 3.000000e+00 2.600000e+01 1.000000e+01
		endloop
	endfacet
	facet normal 0.000000e+00 1.000000e+00 -0.000000e+00
		outer loop
			vertex 2.300000e+01 2.600000e+01 1.000000e+00
			vertex 3.000000e+00 2.600000e+01 1.000000e+01
			vertex 2.300000e+01 2.600000e+01 1.000000e+01
		endloop
	endfacet
	facet normal nan nan nan
		outer loop
			vertex 3.000000e+00 2.600000e+01 1.000000e+00
			vertex 3.000000e+00 2.600000e+01 1.000000e+00
			vertex 3.000000e+00 2.600000e+01 1.000000e+01
		endloop
	endfacet
	facet normal nan nan nan
		outer loop
			vertex 3.000000e+00 2.600000e+01 1.000000e+00
			vertex 3.000000e+00 2.600000e+01 1.000000e+01
			vertex 3.000000e+00 2.600000e+01 1.000000e+01
		endloop
	endfacet
	facet normal -1.564345e-01 9.876883e-01 0.000000e+00
		outer loop
			vertex 3.000000e+00 2.600000e+01 1.000000e+00
			vertex 2.072949e+00 2.585317e+01 1.000000e+00
			vertex 2.072949e+00 2.585317e+01 1.000000e+01
		endloop
	endfacet
	facet normal -1.564345e-01 9.876883e-01 0.000000e+00
		outer loop
			vertex 3.000000e+00 2.600000e+01 1.000000e+00
			vertex 2.072949e+00 2.585317e+01 1.000000e+01
			vertex 3.000000e+00 2.600000e+01 1.000000e+01
		endloop
	endfacet
	facet normal -4.539905e-01 8.910065e-01 0.000000e+00
		outer loop
			vertex 2.072949e+00 2.585317e+01 1.000000e+00
			vertex 1.236644e+00 2.542705e+01 1.000000e+00
			vertex 1.236644e+00 2.542705e+01 1.000000e+01
		endloop
	endfacet
	facet normal -4.539905e-01 8.910065e-01 0.000000e+00
		outer loop
			vertex 2.072949e+00 2.585317e+01 1.000000e+00
			vertex 1.236644e+00 2.542705e+01 1.000000e+01
			vertex 2.072949e+00 2.585317e+01 1.000000e+01
		endloop
	endfacet
	facet normal -7.071068e-01 7.071068e-01 0.000000e+00
		outer loop
			vertex 1.236644e+00 2.542705e+01 1.000000e+00
			vertex 5.729490e-01 2.476336e+01 1.000000e+00
			vertex 5.729490e-01 2.476336e+01 1.000000e+01
		endloop
	endfacet
	facet normal -7.071068e-01 7.071068e-01 0.000000e+00
		outer loop
			vertex 1.236644e+00 2.542705e+01 1.000000e+00
			vertex 5.729490e-01 2.476336e+01 1.000000e+01
			vertex 1.236644e+00 2.542705e+01 1.000000e+01
		endloop
	endfacet
	facet normal -8.910065e-01 4.539905e-01 0.000000e+00
		outer loop
			vertex 5.729490e-01 2.476336e+01 1.000000e+00
			vertex 1.468305e-01 2.392705e+01 1.000000e+00
			vertex 1.468305e-01 2.392705e+01 1.000000e+01
		endloop
	endfacet
	facet normal -8.910065e-01 4.539905e-01 0.000000e+00
		outer loop
			vertex 5.729490e-01 2.476336e+01 1.000000e+00
			vertex 1.468305e-01 2.392705e+01 1.000000e+01
			vertex 5.729490e-01 2.476336e+01 1.000000e+01
		endloop
	endfacet
	facet normal -9.876883e-01 1.564345e-01 0.000000e+00
		outer loop
			vertex 1.468305e-01 2.392705e+01 1.000000e+00
			vertex 0.000000e+00 2.300000e+01 1.000000e+00
			vertex 0.000000e+00 2.300000e+01 1.000000e+01
		endloop
	endfacet
	facet normal -9.876883e-01 1.564345e-01 0.000000e+00
		outer loop
			vertex 1.468305e-01 2.392705e+01 1.000000e+00
			vertex 0.000000e+00 2.300000e+01 1.000000e+01
			vertex 1.468305e-01 2.392705e+01 1.000000e+01
		endloop
	endfacet
	facet normal nan nan nan
		outer loop
			vertex 0.000000e+00 2.300000e+01 1.000000e+00
			vertex 0.000000e+00 2.300000e+01 1.000000e+00
			vertex 0.000000e+00 2.300000e+01 1.000000e+01
		endloop
	endfacet
	facet normal nan nan nan
		outer loop
			vertex 0.000000e+00 2.300000e+01 1.000000e+00
			vertex 0.000000e+00 2.300000e+01 1.000000e+01
			vertex 0.000000e+00 2.300000e+01 1.000000e+01
		endloop
	endfacet
	facet normal -1.000000e+00 0.000000e+00 0.000000e+00
		outer loop
			vertex 0.000000e+00 2.300000e+01 1.000000e+00
			vertex 0.000000e+00 3.000000e+00 1.000000e+00
			vertex 0.000000e+00 3.000000e+00 1.000000e+01
		endloop
	endfacet
	facet normal -1.000000e+00 0.000000e+00 0.000000e+00
		outer loop
			vertex 0.000000e+00 2.300000e+01 1.000000e+00
			vertex 0.000000e+00 3.000000e+00 1.000000e+01
			vertex 0.000000e+00 2.300000e+01 1.000000e+01
		endloop
	endfacet
endsolid Sketchtestmesh
