solid Boxuniontest
	facet normal 0.000000e+00 -1.000000e+00 0.000000e+00
		outer loop
			vertex 7.500000e+00 0.000000e+00 1.500000e+01
			vertex 7.500000e+00 0.000000e+00 0.000000e+00
			vertex 2.250000e+01 0.000000e+00 0.000000e+00
		endloop
	endfacet
	facet normal 0.000000e+00 -1.000000e+00 0.000000e+00
		outer loop
			vertex 7.500000e+00 0.000000e+00 1.500000e+01
			vertex 2.250000e+01 0.000000e+00 0.000000e+00
			vertex 2.250000e+01 0.000000e+00 1.500000e+01
		endloop
	endfacet
	facet normal 0.000000e+00 -1.000000e+00 0.000000e+00
		outer loop
			vertex 2.250000e+01 5.000000e+00 5.000000e+00
			vertex 3.000000e+01 5.000000e+00 5.000000e+00
			vertex 2.250000e+01 5.000000e+00 6.250000e+00
		endloop
	endfacet
	facet normal 1.000000e+00 0.000000e+00 0.000000e+00
		outer loop
			vertex 2.250000e+01 0.000000e+00 1.500000e+01
			vertex 2.250000e+01 0.000000e+00 0.000000e+00
			vertex 2.250000e+01 5.000000e+00 0.000000e+00
		endloop
	endfacet
	facet normal 1.000000e+00 0.000000e+00 0.000000e+00
		outer loop
			vertex 2.250000e+01 0.000000e+00 1.500000e+01
			vertex 2.250000e+01 5.000000e+00 0.000000e+00
			vertex 2.250000e+01 5.000000e+00 1.000000e+01
		endloop
	endfacet
	facet normal 1.000000e+00 -0.000000e+00 0.000000e+00
		outer loop
			vertex 2.250000e+01 0.000000e+00 1.500000e+01
			vertex 2.250000e+01 5.000000e+00 1.000000e+01
			vertex 2.250000e+01 5.000000e+00 1.500000e+01
		endloop
	endfacet
	facet normal 1.000000e+00 0.000000e+00 0.000000e+00
		outer loop
			vertex 2.250000e+01 1.000000e+01 0.000000e+00
			vertex 2.250000e+01 1.500000e+01 0.000000e+00
			vertex 2.250000e+01 1.000000e+01 5.000000e+00
		endloop
	endfacet
	facet normal 1.000000e+00 -0.000000e+00 0.000000e+00
		outer loop
			vertex 2.250000e+01 1.000000e+01 5.000000e+00
			vertex 2.250000e+01 1.500000e+01 0.000000e+00
			vertex 2.250000e+01 1.500000e+01 1.500000e+01
		endloop
	endfacet
	facet normal 1.000000e+00 0.000000e+00 0.000000e+00
		outer loop
			vertex 2.250000e+01 1.000000e+01 5.000000e+00
			vertex 2.250000e+01 1.500000e+01 1.500000e+01
			vertex 2.250000e+01 1.000000e+01 1.500000e+01
		endloop
	endfacet
	facet normal 1.000000e+00 0.000000e+00 0.000000e+00
		outer loop
			vertex 2.250000e+01 5.000000e+00 1.000000e+01
			vertex 2.250000e+01 1.000000e+01 1.000000e+01
			vertex 2.250000e+01 1.000000e+01 1.500000e+01
		endloop
	endfacet
	facet normal 1.000000e+00 0.000000e+00 0.000000e+00
		outer loop
			vertex 2.250000e+01 5.000000e+00 1.000000e+01
			vertex 2.250000e+01 1.000000e+01 1.500000e+01
			vertex 2.250000e+01 5.000000e+00 1.500000e+01
		endloop
	endfacet
	facet normal 1.000000e+00 0.000000e+00 0.000000e+00
		outer loop
			vertex 2.250000e+01 5.000000e+00 0.000000e+00
			vertex 2.250000e+01 1.000000e+01 0.000000e+00
			vertex 2.250000e+01 1.000000e+01 5.000000e+00
		endloop
	endfacet
	facet normal 1.000000e+00 0.000000e+00 0.000000e+00
		outer loop
			vertex 2.250000e+01 5.000000e+00 0.000000e+00
			vertex 2.250000e+01 1.000000e+01 5.000000e+00
			vertex 2.250000e+01 5.000000e+00 5.000000e+00
		endloop
	endfacet
	facet normal 0.000000e+00 -1.000000e+00 0.000000e+00
		outer loop
			vertex 2.250000e+01 5.000000e+00 6.250000e+00
			vertex 3.000000e+01 5.000000e+00 5.000000e+00
			vertex 3.000000e+01 5.000000e+00 1.000000e+01
		endloop
	endfacet
	facet normal 0.000000e+00 -1.000000e+00 0.000000e+00
		outer loop
			vertex 2.250000e+01 5.000000e+00 6.250000e+00
			vertex 3.000000e+01 5.000000e+00 1.000000e+01
			vertex 2.250000e+01 5.000000e+00 1.000000e+01
		endloop
	endfacet
	facet normal 1.000000e+00 0.000000e+00 0.000000e+00
		outer loop
			vertex 3.000000e+01 5.000000e+00 1.000000e+01
			vertex 3.000000e+01 5.000000e+00 5.000000e+00
			vertex 3.000000e+01 1.000000e+01 5.000000e+00
		endloop
	endfacet
	facet normal 1.000000e+00 -0.000000e+00 0.000000e+00
		outer loop
			vertex 3.000000e+01 5.000000e+00 1.000000e+01
			vertex 3.000000e+01 1.000000e+01 5.000000e+00
			vertex 3.000000e+01 1.000000e+01 1.000000e+01
		endloop
	endfacet
	facet normal 0.000000e+00 1.000000e+00 0.000000e+00
		outer loop
			vertex 3.000000e+01 1.000000e+01 1.000000e+01
			vertex 3.000000e+01 1.000000e+01 5.000000e+00
			vertex 2.250000e+01 1.000000e+01 5.000000e+00
		endloop
	endfacet
	facet normal 0.000000e+00 1.000000e+00 0.000000e+00
		outer loop
			vertex 3.000000e+01 1.000000e+01 1.000000e+01
			vertex 2.250000e+01 1.000000e+01 5.000000e+00
			vertex 2.250000e+01 1.000000e+01 8.750000e+00
		endloop
	endfacet
	facet normal 0.000000e+00 1.000000e+00 0.000000e+00
		outer loop
			vertex 3.000000e+01 1.000000e+01 1.000000e+01
			vertex 2.250000e+01 1.000000e+01 8.750000e+00
			vertex 2.250000e+01 1.000000e+01 1.000000e+01
		endloop
	endfacet
	facet normal 0.000000e+00 0.000000e+00 1.000000e+00
		outer loop
			vertex 2.250000e+01 5.000000e+00 1.000000e+01
			vertex 3.000000e+01 5.000000e+00 1.000000e+01
			vertex 2.250000e+01 6.250000e+00 1.000000e+01
		endloop
	endfacet
	facet normal -0.000000e+00 0.000000e+00 1.000000e+00
		outer loop
			vertex 2.250000e+01 6.250000e+00 1.000000e+01
			vertex 3.000000e+01 5.000000e+00 1.000000e+01
			vertex 3.000000e+01 1.000000e+01 1.000000e+01
		endloop
	endfacet
	facet normal 0.000000e+00 0.000000e+00 1.000000e+00
		outer loop
			vertex 2.250000e+01 6.250000e+00 1.000000e+01
			vertex 3.000000e+01 1.000000e+01 1.000000e+01
			vertex 2.250000e+01 1.000000e+01 1.000000e+01
		endloop
	endfacet
	facet normal 0.000000e+00 0.000000e+00 -1.000000e+00
		outer loop
			vertex 3.000000e+01 5.000000e+00 5.000000e+00
			vertex 2.250000e+01 5.000000e+00 5.000000e+00
			vertex 2.250000e+01 6.250000e+00 5.000000e+00
		endloop
	endfacet
	facet normal 0.000000e+00 0.000000e+00 -1.000000e+00
		outer loop
			vertex 3.000000e+01 5.000000e+00 5.000000e+00
			vertex 2.250000e+01 6.250000e+00 5.000000e+00
			vertex 2.250000e+01 1.000000e+01 5.000000e+00
		endloop
	endfacet
	facet normal 0.000000e+00 0.000000e+00 -1.000000e+00
		outer loop
			vertex 3.000000e+01 5.000000e+00 5.000000e+00
			vertex 2.250000e+01 1.000000e+01 5.000000e+00
			vertex 3.000000e+01 1.000000e+01 5.000000e+00
		endloop
	endfacet
	facet normal -1.000000e+00 0.000000e+00 0.000000e+00
		outer loop
			vertex 7.500000e+00 5.000000e+00 0.000000e+00
			vertex 7.500000e+00 0.000000e+00 0.000000e+00
			vertex 7.500000e+00 5.000000e+00 5.000000e+00
		endloop
	endfacet
	facet normal -1.000000e+00 -0.000000e+00 0.000000e+00
		outer loop
			vertex 7.500000e+00 5.000000e+00 5.000000e+00
			vertex 7.500000e+00 0.000000e+00 0.000000e+00
			vertex 7.500000e+00 0.000000e+00 1.500000e+01
		endloop
	endfacet
	facet normal -1.000000e+00 0.000000e+00 0.000000e+00
		outer loop
			vertex 7.500000e+00 5.000000e+00 5.000000e+00
			vertex 7.500000e+00 0.000000e+00 1.500000e+01
			vertex 7.500000e+00 5.000000e+00 1.500000e+01
		endloop
	endfacet
	facet normal -1.000000e+00 0.000000e+00 -0.000000e+00
		outer loop
			vertex 7.500000e+00 1.500000e+01 1.500000e+01
			vertex 7.500000e+00 1.500000e+01 0.000000e+00
			vertex 7.500000e+00 1.000000e+01 0.000000e+00
		endloop
	endfacet
	facet normal -1.000000e+00 0.000000e+00 0.000000e+00
		outer loop
			vertex 7.500000e+00 1.500000e+01 1.500000e+01
			vertex 7.500000e+00 1.000000e+01 0.000000e+00
			vertex 7.500000e+00 1.000000e+01 1.000000e+01
		endloop
	endfacet
	facet normal -1.000000e+00 -0.000000e+00 0.000000e+00
		outer loop
			vertex 7.500000e+00 1.500000e+01 1.500000e+01
			vertex 7.500000e+00 1.000000e+01 1.000000e+01
			vertex 7.500000e+00 1.000000e+01 1.500000e+01
		endloop
	endfacet
	facet normal -1.000000e+00 0.000000e+00 0.000000e+00
		outer loop
			vertex 7.500000e+00 1.000000e+01 1.000000e+01
			vertex 7.500000e+00 5.000000e+00 1.000000e+01
			vertex 7.500000e+00 5.000000e+00 1.500000e+01
		endloop
	endfacet
	facet normal -1.000000e+00 0.000000e+00 0.000000e+00
		outer loop
			vertex 7.500000e+00 1.000000e+01 1.000000e+01
			vertex 7.500000e+00 5.000000e+00 1.500000e+01
			vertex 7.500000e+00 1.000000e+01 1.500000e+01
		endloop
	endfacet
	facet normal -1.000000e+00 0.000000e+00 0.000000e+00
		outer loop
			vertex 7.500000e+00 1.000000e+01 0.000000e+00
			vertex 7.500000e+00 5.000000e+00 0.000000e+00
			vertex 7.500000e+00 5.000000e+00 5.000000e+00
		endloop
	endfacet
	facet normal -1.000000e+00 0.000000e+00 0.000000e+00
		outer loop
			vertex 7.500000e+00 1.000000e+01 0.000000e+00
			vertex 7.500000e+00 5.000000e+00 5.000000e+00
			vertex 7.500000e+00 1.000000e+01 5.000000e+00
		endloop
	endfacet
	facet normal 0.000000e+00 -1.000000e+00 0.000000e+00
		outer loop
			vertex 0.000000e+00 5.000000e+00 1.000000e+01
			vertex 0.000000e+00 5.000000e+00 5.000000e+00
			vertex 7.500000e+00 5.000000e+00 5.000000e+00
		endloop
	endfacet
	facet normal 0.000000e+00 -1.000000e+00 0.000000e+00
		outer loop
			vertex 0.000000e+00 5.000000e+00 1.000000e+01
			vertex 7.500000e+00 5.000000e+00 5.000000e+00
			vertex 7.500000e+00 5.000000e+00 8.750000e+00
		endloop
	endfacet
	facet normal 0.000000e+00 -1.000000e+00 0.000000e+00
		outer loop
			vertex 0.000000e+00 5.000000e+00 1.000000e+01
			vertex 7.500000e+00 5.000000e+00 8.750000e+00
			vertex 7.500000e+00 5.000000e+00 1.000000e+01
		endloop
	endfacet
	facet normal -1.000000e+00 0.000000e+00 -0.000000e+00
		outer loop
			vertex 0.000000e+00 1.000000e+01 1.000000e+01
			vertex 0.000000e+00 1.000000e+01 5.000000e+00
			vertex 0.000000e+00 5.000000e+00 5.000000e+00
		endloop
	endfacet
	facet normal -1.000000e+00 -0.000000e+00 0.000000e+00
		outer loop
			vertex 0.000000e+00 1.000000e+01 1.000000e+01
			vertex 0.000000e+00 5.000000e+00 5.000000e+00
			vertex 0.000000e+00 5.000000e+00 1.000000e+01
		endloop
	endfacet
	facet normal 0.000000e+00 1.000000e+00 -0.000000e+00
		outer loop
			vertex 7.500000e+00 1.000000e+01 5.000000e+00
			vertex 0.000000e+00 1.000000e+01 5.000000e+00
			vertex 7.500000e+00 1.000000e+01 6.250000e+00
		endloop
	endfacet
	facet normal 0.000000e+00 1.000000e+00 0.000000e+00
		outer loop
			vertex 7.500000e+00 1.000000e+01 6.250000e+00
			vertex 0.000000e+00 1.000000e+01 5.000000e+00
			vertex 0.000000e+00 1.000000e+01 1.000000e+01
		endloop
	endfacet
	facet normal 0.000000e+00 1.000000e+00 -0.000000e+00
		outer loop
			vertex 7.500000e+00 1.000000e+01 6.250000e+00
			vertex 0.000000e+00 1.000000e+01 1.000000e+01
			vertex 7.500000e+00 1.000000e+01 1.000000e+01
		endloop
	endfacet
	facet normal 0.000000e+00 0.000000e+00 1.000000e+00
		outer loop
			vertex 0.000000e+00 1.000000e+01 1.000000e+01
			vertex 0.000000e+00 5.000000e+00 1.000000e+01
			vertex 7.500000e+00 5.000000e+00 1.000000e+01
		endloop
	endfacet
	facet normal 0.000000e+00 0.000000e+00 1.000000e+00
		outer loop
			vertex 0.000000e+00 1.000000e+01 1.000000e+01
			vertex 7.500000e+00 5.000000e+00 1.000000e+01
			vertex 7.500000e+00 8.750000e+00 1.000000e+01
		endloop
	endfacet
	facet normal -0.000000e+00 0.000000e+00 1.000000e+00
		outer loop
			vertex 0.000000e+00 1.000000e+01 1.000000e+01
			vertex 7.500000e+00 8.750000e+00 1.000000e+01
			vertex 7.500000e+00 1.000000e+01 1.000000e+01
		endloop
	endfacet
	facet normal 0.000000e+00 0.000000e+00 -1.000000e+00
		outer loop
			vertex 7.500000e+00 5.000000e+00 5.000000e+00
			vertex 0.000000e+00 5.000000e+00 5.000000e+00
			vertex 0.000000e+00 1.000000e+01 5.000000e+00
		endloop
	endfacet
	facet normal 0.000000e+00 0.000000e+00 -1.000000e+00
		outer loop
			vertex 7.500000e+00 5.000000e+00 5.000000e+00
			vertex 0.000000e+00 1.000000e+01 5.000000e+00
			vertex 7.500000e+00 8.750000e+00 5.000000e+00
		endloop
	endfacet
	facet normal 0.000000e+00 0.000000e+00 -1.000000e+00
		outer loop
			vertex 7.500000e+00 8.750000e+00 5.000000e+00
			vertex 0.000000e+00 1.000000e+01 5.000000e+00
			vertex 7.500000e+00 1.000000e+01 5.000000e+00
		endloop
	endfacet
	facet normal 0.000000e+00 1.000000e+00 0.000000e+00
		outer loop
			vertex 2.250000e+01 1.500000e+01 1.500000e+01
			vertex 2.250000e+01 1.500000e+01 0.000000e+00
			vertex 7.500000e+00 1.500000e+01 0.000000e+00
		endloop
	endfacet
	facet normal 0.000000e+00 1.000000e+00 0.000000e+00
		outer loop
			vertex 2.250000e+01 1.500000e+01 1.500000e+01
			vertex 7.500000e+00 1.500000e+01 0.000000e+00
			vertex 7.500000e+00 1.500000e+01 1.500000e+01
		endloop
	endfacet
	facet normal 0.000000e+00 0.000000e+00 1.000000e+00
		outer loop
			vertex 7.500000e+00 5.000000e+00 1.500000e+01
			vertex 7.500000e+00 0.000000e+00 1.500000e+01
			vertex 2.250000e+01 0.000000e+00 1.500000e+01
		endloop
	endfacet
	facet normal -0.000000e+00 0.000000e+00 1.000000e+00
		outer loop
			vertex 7.500000e+00 5.000000e+00 1.500000e+01
			vertex 2.250000e+01 0.000000e+00 1.500000e+01
			vertex 1.750000e+01 5.000000e+00 1.500000e+01
		endloop
	endfacet
	facet normal -0.000000e+00 0.000000e+00 1.000000e+00
		outer loop
			vertex 1.750000e+01 5.000000e+00 1.500000e+01
			vertex 2.250000e+01 0.000000e+00 1.500000e+01
			vertex 2.250000e+01 5.000000e+00 1.500000e+01
		endloop
	endfacet
	facet normal 0.000000e+00 0.000000e+00 1.000000e+00
		outer loop
			vertex 7.500000e+00 1.500000e+01 1.500000e+01
			vertex 7.500000e+00 1.000000e+01 1.500000e+01
			vertex 1.250000e+01 1.000000e+01 1.500000e+01
		endloop
	endfacet
	facet normal 0.000000e+00 0.000000e+00 1.000000e+00
		outer loop
			vertex 7.500000e+00 1.500000e+01 1.500000e+01
			vertex 1.250000e+01 1.000000e+01 1.500000e+01
			vertex 2.250000e+01 1.000000e+01 1.500000e+01
		endloop
	endfacet
	facet normal -0.000000e+00 0.000000e+00 1.000000e+00
		outer loop
			vertex 7.500000e+00 1.500000e+01 1.500000e+01
			vertex 2.250000e+01 1.000000e+01 1.500000e+01
			vertex 2.250000e+01 1.500000e+01 1.500000e+01
		endloop
	endfacet
	facet normal 0.000000e+00 0.000000e+00 1.000000e+00
		outer loop
			vertex 7.500000e+00 1.000000e+01 1.500000e+01
			vertex 7.500000e+00 5.000000e+00 1.500000e+01
			vertex 1.750000e+01 5.000000e+00 1.500000e+01
		endloop
	endfacet
	facet normal -0.000000e+00 0.000000e+00 1.000000e+00
		outer loop
			vertex 7.500000e+00 1.000000e+01 1.500000e+01
			vertex 1.750000e+01 5.000000e+00 1.500000e+01
			vertex 1.250000e+01 1.000000e+01 1.500000e+01
		endloop
	endfacet
	facet normal 0.000000e+00 0.000000e+00 1.000000e+00
		outer loop
			vertex 1.250000e+01 1.000000e+01 1.500000e+01
			vertex 1.750000e+01 5.000000e+00 1.500000e+01
			vertex 2.250000e+01 5.000000e+00 1.500000e+01
		endloop
	endfacet
	facet normal -0.000000e+00 0.000000e+00 1.000000e+00
		outer loop
			vertex 1.250000e+01 1.000000e+01 1.500000e+01
			vertex 2.250000e+01 5.000000e+00 1.500000e+01
			vertex 2.250000e+01 1.000000e+01 1.500000e+01
		endloop
	endfacet
	facet normal 0.000000e+00 0.000000e+00 -1.000000e+00
		outer loop
			vertex 2.250000e+01 0.000000e+00 0.000000e+00
			vertex 7.500000e+00 0.000000e+00 0.000000e+00
			vertex 7.500000e+00 5.000000e+00 0.000000e+00
		endloop
	endfacet
	facet normal 0.000000e+00 0.000000e+00 -1.000000e+00
		outer loop
			vertex 2.250000e+01 0.000000e+00 0.000000e+00
			vertex 7.500000e+00 5.000000e+00 0.000000e+00
			vertex 1.750000e+01 5.000000e+00 0.000000e+00
		endloop
	endfacet
	facet normal 0.000000e+00 0.000000e+00 -1.000000e+00
		outer loop
			vertex 2.250000e+01 0.000000e+00 0.000000e+00
			vertex 1.750000e+01 5.000000e+00 0.000000e+00
			vertex 2.250000e+01 5.000000e+00 0.000000e+00
		endloop
	endfacet
	facet normal 0.000000e+00 0.000000e+00 -1.000000e+00
		outer loop
			vertex 7.500000e+00 1.000000e+01 0.000000e+00
			vertex 7.500000e+00 1.500000e+01 0.000000e+00
			vertex 1.250000e+01 1.000000e+01 0.000000e+00
		endloop
	endfacet
	facet normal 0.000000e+00 0.000000e+00 -1.000000e+00
		outer loop
			vertex 1.250000e+01 1.000000e+01 0.000000e+00
			vertex 7.500000e+00 1.500000e+01 0.000000e+00
			vertex 2.250000e+01 1.500000e+01 0.000000e+00
		endloop
	endfacet
	facet normal 0.000000e+00 0.000000e+00 -1.000000e+00
		outer loop
			vertex 1.250000e+01 1.000000e+01 0.000000e+00
			vertex 2.250000e+01 1.500000e+01 0.000000e+00
			vertex 2.250000e+01 1.000000e+01 0.000000e+00
		endloop
	endfacet
	facet normal 0.000000e+00 0.000000e+00 -1.000000e+00
		outer loop
			vertex 7.500000e+00 5.000000e+00 0.000000e+00
			vertex 7.500000e+00 1.000000e+01 0.000000e+00
			vertex 1.250000e+01 1.000000e+01 0.000000e+00
		endloop
	endfacet
	facet normal 0.000000e+00 0.000000e+00 -1.000000e+00
		outer loop
			vertex 7.500000e+00 5.000000e+00 0.000000e+00
			vertex 1.250000e+01 1.000000e+01 0.000000e+00
			vertex 1.750000e+01 5.000000e+00 0.000000e+00
		endloop
	endfacet
	facet normal 0.000000e+00 0.000000e+00 -1.000000e+00
		outer loop
			vertex 1.750000e+01 5.000000e+00 0.000000e+00
			vertex 1.250000e+01 1.000000e+01 0.000000e+00
			vertex 2.250000e+01 1.000000e+01 0.000000e+00
		endloop
	endfacet
	facet normal 0.000000e+00 0.000000e+00 -1.000000e+00
		outer loop
			vertex 1.750000e+01 5.000000e+00 0.000000e+00
			vertex 2.250000e+01 1.000000e+01 0.000000e+00
			vertex 2.250000e+01 5.000000e+00 0.000000e+00
		endloop
	endfacet
endsolid Boxuniontest
